<?xml version="1.0" encoding="UTF-8" standalone="no"?>
<!DOCTYPE svg PUBLIC "-//W3C//DTD SVG 1.1//EN"
 "http://www.w3.org/Graphics/SVG/1.1/DTD/svg11.dtd">
<!-- Generated by graphviz version 2.40.1 (0)
 -->
<!-- Title: %3 Pages: 1 -->
<svg width="210pt" height="225pt"
 viewBox="0.00 0.00 209.90 225.00" xmlns="http://www.w3.org/2000/svg" xmlns:xlink="http://www.w3.org/1999/xlink">
<g id="graph0" class="graph" transform="scale(1 1) rotate(0) translate(4 221)">
<title>%3</title>
<polygon fill="#ffffff" stroke="transparent" points="-4,4 -4,-221 205.8973,-221 205.8973,4 -4,4"/>
<text text-anchor="middle" x="100.9487" y="-201" font-family="Times,serif" font-size="15.00" fill="#000000">Tree Visualization</text>
<!-- 2w -->
<g id="node1" class="node">
<title>2w</title>
<ellipse fill="none" stroke="#000000" cx="66.8973" cy="-174" rx="33.2948" ry="18"/>
<text text-anchor="middle" x="66.8973" y="-170.3" font-family="Times,serif" font-size="14.00" fill="#000000">AND</text>
</g>
<!-- 0w -->
<g id="node2" class="node">
<title>0w</title>
<ellipse fill="none" stroke="#000000" cx="29.8973" cy="-91" rx="29.795" ry="18"/>
<text text-anchor="middle" x="29.8973" y="-87.3" font-family="Times,serif" font-size="14.00" fill="#000000">INV</text>
</g>
<!-- 2w&#45;&gt;0w -->
<g id="edge2" class="edge">
<title>2w&#45;&gt;0w</title>
<path fill="none" stroke="#000000" d="M59.0506,-156.3978C54.047,-145.1735 47.4662,-130.4112 41.8234,-117.753"/>
<polygon fill="#000000" stroke="#000000" points="45.0012,-116.2853 37.7328,-108.5768 38.6077,-119.1355 45.0012,-116.2853"/>
<text text-anchor="middle" x="58.3973" y="-130" font-family="Times,serif" font-size="10.00" fill="#000000">0w</text>
</g>
<!-- 1w -->
<g id="node4" class="node">
<title>1w</title>
<ellipse fill="none" stroke="#000000" cx="104.8973" cy="-91" rx="27" ry="18"/>
<text text-anchor="middle" x="104.8973" y="-87.3" font-family="Times,serif" font-size="14.00" fill="#000000">OR</text>
</g>
<!-- 2w&#45;&gt;1w -->
<g id="edge5" class="edge">
<title>2w&#45;&gt;1w</title>
<path fill="none" stroke="#000000" d="M74.9562,-156.3978C80.1297,-145.0977 86.9451,-130.2116 92.7663,-117.4967"/>
<polygon fill="#000000" stroke="#000000" points="95.9999,-118.8416 96.9804,-108.2922 89.6353,-115.9276 95.9999,-118.8416"/>
<text text-anchor="middle" x="96.3973" y="-130" font-family="Times,serif" font-size="10.00" fill="#000000">1w</text>
</g>
<!-- a -->
<g id="node3" class="node">
<title>a</title>
<polygon fill="#caff70" stroke="#000000" points="56.8973,-36 2.8973,-36 2.8973,0 56.8973,0 56.8973,-36"/>
<text text-anchor="middle" x="29.8973" y="-14.3" font-family="Times,serif" font-size="14.00" fill="#000000">a</text>
</g>
<!-- 0w&#45;&gt;a -->
<g id="edge1" class="edge">
<title>0w&#45;&gt;a</title>
<path fill="none" stroke="#000000" d="M29.8973,-72.9551C29.8973,-64.8828 29.8973,-55.1764 29.8973,-46.1817"/>
<polygon fill="#000000" stroke="#000000" points="33.3974,-46.0903 29.8973,-36.0904 26.3974,-46.0904 33.3974,-46.0903"/>
</g>
<!-- b -->
<g id="node5" class="node">
<title>b</title>
<polygon fill="#caff70" stroke="#000000" points="129.8973,-36 75.8973,-36 75.8973,0 129.8973,0 129.8973,-36"/>
<text text-anchor="middle" x="102.8973" y="-14.3" font-family="Times,serif" font-size="14.00" fill="#000000">b</text>
</g>
<!-- 1w&#45;&gt;b -->
<g id="edge3" class="edge">
<title>1w&#45;&gt;b</title>
<path fill="none" stroke="#000000" d="M104.403,-72.9551C104.1818,-64.8828 103.9159,-55.1764 103.6694,-46.1817"/>
<polygon fill="#000000" stroke="#000000" points="107.1656,-45.9907 103.393,-36.0904 100.1683,-46.1825 107.1656,-45.9907"/>
</g>
<!-- c -->
<g id="node6" class="node">
<title>c</title>
<polygon fill="#caff70" stroke="#000000" points="201.8973,-36 147.8973,-36 147.8973,0 201.8973,0 201.8973,-36"/>
<text text-anchor="middle" x="174.8973" y="-14.3" font-family="Times,serif" font-size="14.00" fill="#000000">c</text>
</g>
<!-- 1w&#45;&gt;c -->
<g id="edge4" class="edge">
<title>1w&#45;&gt;c</title>
<path fill="none" stroke="#000000" d="M119.7425,-75.5186C128.6557,-66.2234 140.2143,-54.1695 150.4461,-43.4991"/>
<polygon fill="#000000" stroke="#000000" points="153.2102,-45.6735 157.6052,-36.0332 148.1577,-40.8287 153.2102,-45.6735"/>
</g>
</g>
</svg>
